<svg width="200" height="200" viewBox="0 0 200 200" fill="none" xmlns="http://www.w3.org/2000/svg">
<path d="M100 200C155.228 200 200 155.228 200 100C200 44.7715 155.228 0 100 0C44.7715 0 0 44.7715 0 100C0 155.228 44.7715 200 100 200Z" fill="black"/>
<path d="M101.185 155C90.5477 155 81.3849 152.566 73.6967 147.699C66.1137 142.724 60.2686 136.072 56.1611 127.743C52.0537 119.415 50 110.167 50 100C50 89.8328 52.1064 80.5851 56.3191 72.2566C60.5319 63.9282 66.4824 57.3304 74.1706 52.4631C81.9642 47.4877 91.0742 45 101.501 45C112.77 45 122.512 47.8663 130.727 53.5988C139.047 59.2232 145.155 66.5241 149.052 75.5015H136.098C132.938 69.7689 128.515 65.2262 122.828 61.8732C117.246 58.5202 110.453 56.8437 102.449 56.8437C94.0232 56.8437 86.7562 58.7906 80.6477 62.6844C74.5392 66.47 69.8526 71.6077 66.5877 78.0973C63.4281 84.587 61.8483 91.8879 61.8483 100C61.8483 108.004 63.4281 115.305 66.5877 121.903C69.7472 128.392 74.3286 133.584 80.3317 137.478C86.4402 141.264 93.7072 143.156 102.133 143.156C108.452 143.156 114.402 141.75 119.984 138.938C125.671 136.126 130.253 132.07 133.728 126.77C137.309 121.47 139.1 115.088 139.1 107.625H100.869V96.5929H150V153.702H139.1V134.72C136.888 138.181 134.044 141.48 130.569 144.617C127.093 147.645 122.88 150.133 117.93 152.08C113.086 154.027 107.504 155 101.185 155Z" fill="url(#paint0_linear_2_27040)"/>
<path d="M101.185 155C90.5477 155 81.3849 152.566 73.6967 147.699C66.1137 142.724 60.2686 136.072 56.1611 127.743C52.0537 119.415 50 110.167 50 100C50 89.8328 52.1064 80.5851 56.3191 72.2566C60.5319 63.9282 66.4824 57.3304 74.1706 52.4631C81.9642 47.4877 91.0742 45 101.501 45C112.77 45 122.512 47.8663 130.727 53.5988C139.047 59.2232 145.155 66.5241 149.052 75.5015H136.098C132.938 69.7689 128.515 65.2262 122.828 61.8732C117.246 58.5202 110.453 56.8437 102.449 56.8437C94.0232 56.8437 86.7562 58.7906 80.6477 62.6844C74.5392 66.47 69.8526 71.6077 66.5877 78.0973C63.4281 84.587 61.8483 91.8879 61.8483 100C61.8483 108.004 63.4281 115.305 66.5877 121.903C69.7472 128.392 74.3286 133.584 80.3317 137.478C86.4402 141.264 93.7072 143.156 102.133 143.156C108.452 143.156 114.402 141.75 119.984 138.938C125.671 136.126 130.253 132.07 133.728 126.77C137.309 121.47 139.1 115.088 139.1 107.625H100.869V96.5929H150V153.702H139.1V134.72C136.888 138.181 134.044 141.48 130.569 144.617C127.093 147.645 122.88 150.133 117.93 152.08C113.086 154.027 107.504 155 101.185 155Z" stroke="black"/>
<defs>
<linearGradient id="paint0_linear_2_27040" x1="116.657" y1="20.613" x2="116.657" y2="187.925" gradientUnits="userSpaceOnUse">
<stop offset="0.126467" stop-color="#629FF9"/>
<stop offset="0.359375" stop-color="#A5F467"/>
<stop offset="0.645833" stop-color="#F574B2"/>
<stop offset="1" stop-color="#FA8E8E"/>
</linearGradient>
</defs>
</svg>
